<svg fill="#262626" xmlns="http://www.w3.org/2000/svg" xmlns:xlink="http://www.w3.org/1999/xlink" version="1.1" x="0px" y="0px" viewBox="0 0 48 48" enable-background="new 0 0 48 48" xml:space="preserve"><g><path fill="#262626" d="M29.8,36.6H18.2c-0.6,0-1-0.4-1-1v-8.1c-1.6-1.1-2.6-2.9-2.6-4.9c0-3.3,2.7-5.9,5.9-5.9   c1.3,0,2.5,0.4,3.5,1.1c1-0.7,2.2-1.1,3.5-1.1c3.3,0,5.9,2.7,5.9,5.9c0,2-1,3.8-2.6,4.9v8.1C30.8,36.1,30.4,36.6,29.8,36.6z    M19.2,34.6h9.6v-7.7c0-0.4,0.2-0.7,0.5-0.9c1.3-0.7,2.1-2,2.1-3.5c0-2.2-1.8-3.9-3.9-3.9c-1.1,0-2,0.4-2.8,1.2   c-0.4,0.4-1,0.4-1.4,0c-0.7-0.7-1.7-1.2-2.8-1.2c-2.2,0-3.9,1.8-3.9,3.9c0,1.5,0.8,2.8,2.1,3.5c0.3,0.2,0.5,0.5,0.5,0.9   C19.2,26.9,19.2,34.6,19.2,34.6z"></path><path fill="#262626" d="M20.5,28.5c-3.3,0-5.9-2.7-5.9-5.9c0-0.6,0.4-1,1-1s1,0.4,1,1c0,2.2,1.8,3.9,3.9,3.9c0.7,0,1.5-0.2,2.1-0.6   c0.5-0.3,1.1-0.2,1.4,0.3s0.2,1.1-0.3,1.4C22.7,28.1,21.6,28.5,20.5,28.5z"></path><path fill="#262626" d="M37.4,47.5H10.6c-0.6,0-1-0.4-1-1V9.4c0-0.6,0.4-1,1-1h26.8c0.6,0,1,0.4,1,1v37.1   C38.4,47.1,38,47.5,37.4,47.5z M11.6,45.5h24.8V10.4H11.6V45.5z"></path><path fill="#262626" d="M10.6,10.4c-0.5,0-0.9-0.3-1-0.8C9.5,9,9.9,8.5,10.4,8.4c0.1,0,13.8-2.9,18.1-7.5c0.3-0.3,0.7-0.4,1.1-0.3   s0.6,0.5,0.6,0.9v7.9c0,0.6-0.4,1-1,1s-1-0.4-1-1V3.7c-5.7,4.2-16.9,6.5-17.4,6.6C10.7,10.3,10.7,10.4,10.6,10.4z"></path></g></svg>